<?xml version="1.0" standalone="no"?><!DOCTYPE svg PUBLIC "-//W3C//DTD SVG 1.1//EN" "http://www.w3.org/Graphics/SVG/1.1/DTD/svg11.dtd"><svg t="1509504327230" class="icon" style="" viewBox="0 0 1082 1024" version="1.1" xmlns="http://www.w3.org/2000/svg" p-id="13250" xmlns:xlink="http://www.w3.org/1999/xlink" width="38.0390625" height="36"><defs><style type="text/css"></style></defs><path d="M1053.221964 648.366429 752.36707 954.950798C748.476281 958.907255 743.978068 961.878701 739.20077 964.111391L697.502012 1005.02214 573.554918 1005.02214 573.554918 883.471904 615.926766 841.937315C617.749034 838.719615 619.866806 835.600417 622.592 832.825972 622.592 832.825972 626.926044 828.409844 634.543455 820.644681 690.426357 763.694685 923.463311 526.225186 923.463311 526.225186 940.651735 508.659174 969.118525 508.084585 987.029291 524.944673L1051.908617 586.015295C1069.8358 602.875383 1070.410389 630.800417 1053.221964 648.366429ZM512.254461 53.354709C258.811383 53.354709 53.354709 258.696465 53.354709 512.008208 53.354709 765.303535 258.811383 970.645291 512.254461 970.645291 521.874725 970.645291 531.281571 969.791615 540.737667 969.217026L537.076713 1007.008577C528.884713 1007.402581 520.643463 1007.632417 512.352962 1007.632417 238.585844 1007.632417 16.646669 785.693242 16.646669 511.926124 16.646669 238.159006 238.585844 16.219832 512.352962 16.219832 694.251479 16.219832 853.182846 114.261162 939.420473 260.321731L906.619639 278.347415C826.636826 143.811463 680.198669 53.354709 512.254461 53.354709Z" p-id="13251" fill="#42941a"></path></svg>